<?xml version="1.0" encoding="utf-8"?>
<!-- Generator: Adobe Illustrator 19.0.0, SVG Export Plug-In . SVG Version: 6.00 Build 0)  -->
<!DOCTYPE svg PUBLIC "-//W3C//DTD SVG 1.1//EN" "http://www.w3.org/Graphics/SVG/1.1/DTD/svg11.dtd">
<svg version="1.1" id="Layer_1" xmlns="http://www.w3.org/2000/svg" xmlns:xlink="http://www.w3.org/1999/xlink" x="0px" y="0px"
	 viewBox="-255 334 100 100.1" style="enable-background:new -255 334 100 100.1;" xml:space="preserve">
<style type="text/css">
	.st0{fill:#FFFFFF;}
</style>
<g>
	<g>
		<path class="st0" d="M-205,335.1c-27,0-48.9,21.9-48.9,48.9c0,27,21.9,48.9,48.9,48.9c26.9,0,48.9-21.9,48.9-48.9
			C-156.1,357-178,335.1-205,335.1z M-162.1,384c0,6.3-1.3,12.3-3.8,17.6h-25l23.1-38.9C-164.1,369-162.1,376.3-162.1,384z
			 M-205,341.1c14.6,0,27.6,7.3,35.3,18.5l-12.7,21.2l-23.6-39.8H-205z M-209.7,341.3l12.7,21.3h-45.3
			C-235.6,351.1-223.7,342.8-209.7,341.3z M-248,384c0-6.5,1.4-12.6,4-18.1h24.5l-22.9,39.3C-246,399-248,391.7-248,384z M-205,427
			c-14.7,0-27.7-7.4-35.4-18.6l12.6-21.6l23.6,40.2H-205z M-200.5,426.7l-12.9-21.8h45.9C-174.1,416.8-186.3,425.2-200.5,426.7z"/>
	</g>
</g>
</svg>
